<svg xmlns="http://www.w3.org/2000/svg" width="20" height="21" fill="none" viewBox="0 0 20 21"><path fill="#242424" d="M6.50626 15.8123C6.32551 15.812 6.14797 15.7646 5.99109 15.6749C5.63783 15.4747 5.41822 15.0861 5.41822 14.6642V6.12715C5.41822 5.70412 5.63783 5.31671 5.99109 5.11653C6.15171 5.02422 6.33417 4.97676 6.5194 4.97909C6.70464 4.98142 6.88585 5.03346 7.0441 5.12978L14.3404 9.49724C14.4924 9.59259 14.6178 9.72499 14.7047 9.88204C14.7916 10.0391 14.8372 10.2156 14.8372 10.3951C14.8372 10.5746 14.7916 10.7511 14.7047 10.9082C14.6178 11.0652 14.4924 11.1976 14.3404 11.293L7.04292 15.6616C6.88098 15.7595 6.69549 15.8116 6.50626 15.8123Z"/></svg>