<svg xmlns="http://www.w3.org/2000/svg" width="28" height="28" fill="none" viewBox="0 0 28 28"><circle cx="14" cy="14" r="13.5" fill="url(#paint0_linear_1198_3912)" stroke="#fff"/><path fill="#FAFAFA" d="M16.7619 8.06031L16.834 8.1019C17.4564 8.46125 17.9755 8.76089 18.3555 9.05418C18.7567 9.36375 19.0751 9.71908 19.2084 10.2168C19.3418 10.7145 19.2437 11.1814 19.0511 11.6501C18.9174 11.9754 18.7208 12.3409 18.4839 12.7579L17.9757 12.4559L17.9691 12.452L12.4294 9.25363L11.9113 8.94829C12.1513 8.53945 12.3676 8.19026 12.5806 7.91432C12.8901 7.51317 13.2455 7.19478 13.7432 7.06142C14.2409 6.92806 14.7078 7.02613 15.1765 7.21876C15.6205 7.40125 16.1395 7.70093 16.7619 8.06031Z"/><path fill="#FAFAFA" d="M11.3102 9.98682L8.52806 14.8055C8.28985 15.2173 8.1015 15.543 8.03172 15.9133C7.96194 16.2837 8.01888 16.6555 8.0909 17.1258L8.1103 17.2529C8.24324 18.1259 8.35282 18.8455 8.51808 19.3912C8.69092 19.9619 8.95663 20.4559 9.4792 20.7576C10.0018 21.0593 10.5624 21.0424 11.1431 20.9067C11.6983 20.777 12.3762 20.5121 13.1988 20.1907L13.3186 20.144C13.7618 19.9712 14.1123 19.8346 14.3982 19.589C14.684 19.3434 14.8718 19.0175 15.1094 18.6053L17.8849 13.7978L17.3659 13.4893L11.8224 10.2887L11.3102 9.98682Z"/><defs><linearGradient id="paint0_linear_1198_3912" x1="5" x2="25.5" y1="1" y2="26.5" gradientUnits="userSpaceOnUse"><stop offset=".479" stop-color="#8C81F2"/><stop offset="1" stop-color="#C55CF7"/></linearGradient></defs></svg>