<svg width="25" height="25" viewBox="0 0 25 25" fill="none" xmlns="http://www.w3.org/2000/svg">
<g clip-path="url(#clip0_243_307)">
<path d="M14.75 20V15.5C14.75 15.3011 14.671 15.1103 14.5303 14.9697C14.3897 14.829 14.1989 14.75 14 14.75H11C10.8011 14.75 10.6103 14.829 10.4697 14.9697C10.329 15.1103 10.25 15.3011 10.25 15.5V20C10.25 20.1989 10.171 20.3897 10.0303 20.5303C9.88968 20.671 9.69891 20.75 9.5 20.75H5C4.80109 20.75 4.61032 20.671 4.46967 20.5303C4.32902 20.3897 4.25 20.1989 4.25 20V11.3319C4.25001 11.2273 4.27187 11.124 4.31416 11.0284C4.35646 10.9328 4.41827 10.8472 4.49562 10.7769L11.9956 3.69499C12.1337 3.56929 12.3137 3.49963 12.5005 3.49963C12.6872 3.49963 12.8672 3.56929 13.0053 3.69499L20.5053 10.7769C20.5827 10.8472 20.6445 10.9328 20.6868 11.0284C20.7291 11.124 20.7509 11.2273 20.7509 11.3319V20C20.7509 20.1989 20.6719 20.3897 20.5313 20.5303C20.3906 20.671 20.1998 20.75 20.0009 20.75H15.5C15.3011 20.75 15.1103 20.671 14.9697 20.5303C14.829 20.3897 14.75 20.1989 14.75 20Z" stroke="#AAA6B7" stroke-width="1.5" stroke-linecap="round" stroke-linejoin="round"/>
</g>
<defs>
<clipPath id="clip0_243_307">
<rect width="24" height="24" fill="white" transform="translate(0.5 0.5)"/>
</clipPath>
</defs>
</svg>
