<svg width="24" height="25" viewBox="0 0 24 25" fill="none" xmlns="http://www.w3.org/2000/svg">
<path d="M12 12.5C13.1935 12.5 14.3381 12.0259 15.182 11.182C16.0259 10.3381 16.5 9.19347 16.5 8C16.5 6.80653 16.0259 5.66193 15.182 4.81802C14.3381 3.97411 13.1935 3.5 12 3.5C10.8065 3.5 9.66193 3.97411 8.81802 4.81802C7.97411 5.66193 7.5 6.80653 7.5 8C7.5 9.19347 7.97411 10.3381 8.81802 11.182C9.66193 12.0259 10.8065 12.5 12 12.5ZM12 14C10.4087 14 8.88258 13.3679 7.75736 12.2426C6.63214 11.1174 6 9.5913 6 8C6 6.4087 6.63214 4.88258 7.75736 3.75736C8.88258 2.63214 10.4087 2 12 2C13.5913 2 15.1174 2.63214 16.2426 3.75736C17.3679 4.88258 18 6.4087 18 8C18 9.5913 17.3679 11.1174 16.2426 12.2426C15.1174 13.3679 13.5913 14 12 14ZM19.5 21.5V19.25C19.5 18.6533 19.2629 18.081 18.841 17.659C18.419 17.2371 17.8467 17 17.25 17H6.75C6.15326 17 5.58097 17.2371 5.15901 17.659C4.73705 18.081 4.5 18.6533 4.5 19.25V21.5C4.5 21.6989 4.42098 21.8897 4.28033 22.0303C4.13968 22.171 3.94891 22.25 3.75 22.25C3.55109 22.25 3.36032 22.171 3.21967 22.0303C3.07902 21.8897 3 21.6989 3 21.5V19.25C3 18.2554 3.39509 17.3016 4.09835 16.5983C4.80161 15.8951 5.75544 15.5 6.75 15.5H17.25C18.2446 15.5 19.1984 15.8951 19.9016 16.5983C20.6049 17.3016 21 18.2554 21 19.25V21.5C21 21.6989 20.921 21.8897 20.7803 22.0303C20.6397 22.171 20.4489 22.25 20.25 22.25C20.0511 22.25 19.8603 22.171 19.7197 22.0303C19.579 21.8897 19.5 21.6989 19.5 21.5Z" fill="#F4F4F4"/>
</svg>
