<svg xmlns="http://www.w3.org/2000/svg" width="56" height="56" fill="none" viewBox="0 0 56 56"><circle cx="28" cy="28" r="28" fill="#B22323" transform="rotate(90 28 28)"/><mask id="mask0_344_278" style="mask-type:alpha" width="32" height="32" x="15" y="11" maskUnits="userSpaceOnUse"><rect width="32" height="32" x="15" y="11" fill="#D9D9D9"/></mask><g mask="url(#mask0_344_278)"><path fill="#F1F1F1" d="M38.8776 29.2148L24.7396 37.4181C23.5398 38.1135 22 37.2714 22 35.8694L22 19.4628C22 18.063 23.5376 17.2187 24.7396 17.9164L38.8776 26.1197C39.1506 26.2755 39.3774 26.5007 39.5352 26.7725C39.693 27.0443 39.7762 27.353 39.7762 27.6672C39.7762 27.9815 39.693 28.2902 39.5352 28.562C39.3774 28.8338 39.1506 29.059 38.8776 29.2148Z"/></g></svg>