<svg xmlns="http://www.w3.org/2000/svg" width="24" height="24" fill="none" viewBox="0 0 24 24"><mask id="mask0_230_875" style="mask-type:alpha" width="24" height="24" x="0" y="0" maskUnits="userSpaceOnUse"><rect width="24" height="24" fill="#D9D9D9"/></mask><g mask="url(#mask0_230_875)"><path fill="#fff" fill-rule="evenodd" d="M13.9652 15.0252C12.6171 16.1023 10.9078 16.6223 9.18834 16.4785C7.46885 16.3347 5.86969 15.5379 4.7193 14.2519C3.56891 12.9658 2.95463 11.2881 3.00261 9.56326C3.0506 7.83842 3.75721 6.19744 4.97732 4.97732C6.19744 3.75721 7.83842 3.0506 9.56326 3.00261C11.2881 2.95463 12.9658 3.56891 14.2519 4.7193C15.5379 5.86969 16.3347 7.46885 16.4785 9.18834C16.6223 10.9078 16.1023 12.6171 15.0252 13.9652L20.1812 19.1202C20.2549 19.1888 20.314 19.2716 20.3549 19.3636C20.3959 19.4556 20.418 19.5549 20.4198 19.6556C20.4215 19.7563 20.403 19.8564 20.3653 19.9498C20.3276 20.0432 20.2714 20.128 20.2002 20.1992C20.129 20.2704 20.0442 20.3266 19.9508 20.3643C19.8574 20.402 19.7573 20.4205 19.6566 20.4188C19.5559 20.417 19.4566 20.3949 19.3646 20.3539C19.2726 20.313 19.1898 20.2539 19.1212 20.1802L13.9652 15.0252ZM6.04017 13.4632C5.30621 12.7291 4.80632 11.794 4.60368 10.7759C4.40104 9.75788 4.50474 8.7026 4.90168 7.74347C5.29862 6.78433 5.97098 5.96439 6.83378 5.38727C7.69659 4.81015 8.71111 4.50175 9.74914 4.50105C10.7872 4.50035 11.8021 4.80738 12.6657 5.38334C13.5293 5.9593 14.2027 6.77834 14.601 7.73694C14.9992 8.69554 15.1043 9.75068 14.903 10.769C14.7018 11.7873 14.2031 12.7231 13.4702 13.4582L13.4652 13.4632L13.4602 13.4672C12.4753 14.4498 11.1406 15.0013 9.74934 15.0005C8.35808 14.9998 7.02401 14.4469 6.04017 13.4632Z" clip-rule="evenodd"/></g></svg>