<svg width="50" height="50" viewBox="0 0 50 50" fill="none" xmlns="http://www.w3.org/2000/svg">
<rect width="50" height="50" rx="12" fill="#2E2E30"/>
<g clip-path="url(#clip0_232_965)">
<path d="M31.3533 29C30.9043 29.0018 30.4603 29.0942 30.0479 29.2717C29.6354 29.4493 29.2632 29.7084 28.9533 30.0334L20.8267 25.9667C21.0266 25.3605 21.0266 24.7062 20.8267 24.1L28.9667 19.96C29.5497 20.5745 30.3404 20.9501 31.185 21.0141C32.0296 21.078 32.8678 20.8256 33.5367 20.306C34.2056 19.7863 34.6574 19.0365 34.8043 18.2023C34.9511 17.3681 34.7826 16.5091 34.3314 15.7923C33.8802 15.0754 33.1786 14.5519 32.3629 14.3235C31.5473 14.0952 30.6758 14.1782 29.918 14.5566C29.1602 14.9349 28.5701 15.5815 28.2624 16.3707C27.9548 17.1599 27.9515 18.0353 28.2533 18.8267L20.1933 22.9267C19.758 22.3943 19.1687 22.0096 18.5062 21.8253C17.8437 21.641 17.1404 21.6661 16.4927 21.8972C15.845 22.1283 15.2846 22.5541 14.8884 23.1161C14.4922 23.6782 14.2795 24.349 14.2795 25.0367C14.2795 25.7244 14.4922 26.3952 14.8884 26.9573C15.2846 27.5194 15.845 27.9451 16.4927 28.1762C17.1404 28.4073 17.8437 28.4324 18.5062 28.2481C19.1687 28.0638 19.758 27.6791 20.1933 27.1467L28.2333 31.1934C28.0975 31.5581 28.0275 31.9441 28.0267 32.3334C28.0267 32.9926 28.2222 33.6371 28.5884 34.1853C28.9547 34.7334 29.4753 35.1607 30.0844 35.413C30.6935 35.6653 31.3637 35.7313 32.0103 35.6027C32.6569 35.474 33.2509 35.1566 33.717 34.6904C34.1832 34.2242 34.5007 33.6303 34.6293 32.9837C34.7579 32.3371 34.6919 31.6668 34.4396 31.0578C34.1873 30.4487 33.7601 29.9281 33.2119 29.5618C32.6637 29.1955 32.0193 29 31.36 29H31.3533Z" fill="#F1F1F1"/>
</g>
<defs>
<clipPath id="clip0_232_965">
<rect width="24" height="24" fill="white" transform="translate(13 13)"/>
</clipPath>
</defs>
</svg>
