<svg xmlns="http://www.w3.org/2000/svg" width="24" height="24" fill="none" viewBox="0 0 24 24"><path fill="#fff" d="M17.2464 4.8H19.5C19.7386 4.8 19.9676 4.70518 20.1363 4.5364C20.3051 4.36761 20.4 4.13869 20.4 3.9C20.4 3.66131 20.3051 3.43239 20.1363 3.2636C19.9676 3.09482 19.7386 3 19.5 3L15.3 3C14.8032 3 14.4 3.4032 14.4 3.9V8.7C14.4 8.93869 14.4948 9.16761 14.6636 9.3364C14.8323 9.50518 15.0613 9.6 15.3 9.6C15.5386 9.6 15.7676 9.50518 15.9363 9.3364C16.1051 9.16761 16.2 8.93869 16.2 8.7V6.2712C17.868 7.704 18.9 9.7548 18.9 12C18.9 14.88 17.202 17.436 14.6484 18.786C14.3208 18.9588 14.1 19.29 14.1 19.6608C14.1 20.3052 14.7396 20.7528 15.3156 20.4624C18.5052 18.8532 20.7 15.6912 20.7 12C20.7 9.1128 19.3572 6.5496 17.2464 4.8ZM11.1 9.9C11.2721 9.90011 11.4407 9.85084 11.5857 9.75803C11.7307 9.66523 11.846 9.53278 11.918 9.3764C11.99 9.22002 12.0157 9.04627 11.9919 8.87576C11.9681 8.70525 11.896 8.54513 11.784 8.4144L9.98395 6.3144C9.90705 6.22458 9.81321 6.15078 9.70778 6.09722C9.60236 6.04366 9.48742 6.01139 9.36953 6.00226C9.25164 5.99312 9.1331 6.00729 9.02068 6.04397C8.90827 6.08064 8.80418 6.1391 8.71435 6.216C8.53294 6.37131 8.42066 6.59232 8.40221 6.83042C8.39307 6.94831 8.40724 7.06685 8.44392 7.17927C8.48059 7.29168 8.53905 7.39578 8.61595 7.4856L9.14395 8.1L4.49995 8.1C4.26126 8.1 4.03234 8.19482 3.86355 8.3636C3.69477 8.53239 3.59995 8.76131 3.59995 9C3.59995 9.2387 3.69477 9.46761 3.86355 9.6364C4.03234 9.80518 4.26126 9.9 4.49995 9.9L11.1 9.9ZM7.79995 18C5.48035 18 3.59995 17.25 3.59995 15C3.59995 12.75 5.48035 12 7.79995 12C10.1196 12 12 12.75 12 15C12 17.25 10.1196 18 7.79995 18ZM7.79995 16.2C8.81995 16.2 9.47875 16.026 9.82555 15.8112C9.936 15.7497 10.028 15.6598 10.092 15.5508C10.1376 15.468 10.2 15.306 10.2 15C10.2 14.694 10.1376 14.532 10.092 14.448C10.0275 14.3393 9.93509 14.2498 9.82435 14.1888C9.47875 13.974 8.81995 13.8 7.79995 13.8C6.77995 13.8 6.12115 13.974 5.77435 14.1888C5.6639 14.2503 5.57191 14.3402 5.50795 14.4492C5.46235 14.532 5.39995 14.694 5.39995 15C5.39995 15.306 5.46235 15.468 5.50795 15.552C5.57241 15.6607 5.66481 15.7502 5.77555 15.8112C6.12115 16.026 6.77995 16.2 7.79995 16.2Z"/></svg>