<svg width="24" height="24" viewBox="0 0 24 24" fill="none" xmlns="http://www.w3.org/2000/svg">
<path d="M19.3553 4.63928C19.604 4.88824 19.7436 5.22571 19.7436 5.57757C19.7436 5.92942 19.604 6.26689 19.3553 6.51585L13.6548 12.2164L19.3553 17.9169C19.5301 18.0791 19.6579 18.2856 19.7252 18.5144C19.7925 18.7432 19.7968 18.9859 19.7377 19.217C19.6786 19.4481 19.5583 19.6589 19.3895 19.8274C19.2206 19.9958 19.0094 20.1156 18.7782 20.174C18.5474 20.2332 18.3049 20.2291 18.0762 20.1621C17.8476 20.0951 17.6412 19.9678 17.4788 19.7934L11.7783 14.0929L6.07776 19.7934C5.91547 19.9682 5.70904 20.096 5.48023 20.1633C5.25141 20.2306 5.00868 20.2349 4.77761 20.1758C4.54654 20.1167 4.33568 19.9964 4.16725 19.8276C3.99882 19.6587 3.87905 19.4475 3.82057 19.2163C3.76141 18.9855 3.76554 18.743 3.83252 18.5143C3.8995 18.2857 4.02686 18.0793 4.2012 17.9169L9.9017 12.2164L4.2012 6.51585C3.96679 6.264 3.83914 5.93108 3.84508 5.58707C3.85102 5.24306 3.99009 4.91475 4.23306 4.67115C4.47667 4.42818 4.80498 4.28911 5.14898 4.28317C5.49299 4.27723 5.82591 4.40488 6.07776 4.63928L11.7783 10.3398L17.4788 4.63928C17.7277 4.39064 18.0652 4.25098 18.417 4.25098C18.7689 4.25098 19.1064 4.39064 19.3553 4.63928Z" fill="#F1F1F1"/>
</svg>
